#Comment line ignore any data following # character 
#Hierarchical Translation and Rotation (.htr) file 
[Header]	
#Header keywords are followed by a single value 
FileType HTR		#Single word string
DataType HTRS		#Translation followed by rotation and scale data
FileVersion 1		#integer
NumSegments 84		#integer
NumFrames 2		#integer
DataFrameRate 30		#integer, data frame rate in this file
EulerRotationOrder ZYX
CalibrationUnits mm
RotationUnits Degrees
GlobalAxisofGravity Y
BoneLengthAxis Y
ScaleFactor 1.00
[SegmentNames&Hierarchy]
#CHILD	PARENT
MASTER GLOBAL
root MASTER
chest root
L_mid_tent01 root
R_mid_tent01 root
spine01 root
Bip01_Neck chest
L_humerus chest
R_humerus chest
weapon_bone chest
Bip01_Head Bip01_Neck
eye_left_bone Bip01_Head
eye_right_bone Bip01_Head
L_forearm L_humerus
L_front_hand L_forearm
L_weapon_bone L_forearm
L_front_hand01_01 L_front_hand
L_front_hand02_01 L_front_hand
L_front_hand03_01 L_front_hand
L_front_hand01_02 L_front_hand01_01
L_front_hand02_02 L_front_hand02_01
L_front_hand03_02 L_front_hand03_01
R_forearm R_humerus
R_front_hand R_forearm
R_weapon_bone R_forearm
R_front_hand01_01 R_front_hand
R_front_hand02_01 R_front_hand
R_front_hand03_01 R_front_hand
R_front_hand01_02 R_front_hand01_01
R_front_hand02_02 R_front_hand02_01
R_front_hand03_02 R_front_hand03_01
null_rope01_connect L_mid_tent01
Rope1_Seg01 null_rope01_connect
Rope1_Seg02 Rope1_Seg01
Rope1_Seg03 Rope1_Seg02
Rope1_Seg04 Rope1_Seg03
Rope1_Seg05 Rope1_Seg04
Rope1_Seg06 Rope1_Seg05
Rope1_Seg07 Rope1_Seg06
Rope1_Seg09 Rope1_Seg07
L_mid_hand01 Rope1_Seg09
L_mid_hand02 Rope1_Seg09
L_mid_hand03 Rope1_Seg09
null_rope02_connect R_mid_tent01
Rope2_Seg01 null_rope02_connect
Rope2_Seg02 Rope2_Seg01
Rope2_Seg03 Rope2_Seg02
Rope2_Seg04 Rope2_Seg03
Rope2_Seg05 Rope2_Seg04
Rope2_Seg06 Rope2_Seg05
Rope2_Seg07 Rope2_Seg06
Rope2_Seg09 Rope2_Seg07
R_mid_hand01 Rope2_Seg09
R_mid_hand02 Rope2_Seg09
R_mid_hand03 Rope2_Seg09
spine02 spine01
spine03 spine02
pelvis spine03
null_rope03_connect pelvis
null_rope04_connect pelvis
Rope3_Seg01 null_rope03_connect
Rope3_Seg02 Rope3_Seg01
Rope3_Seg03 Rope3_Seg02
Rope3_Seg04 Rope3_Seg03
Rope3_Seg05 Rope3_Seg04
Rope3_Seg06 Rope3_Seg05
Rope3_Seg07 Rope3_Seg06
Rope3_Seg08 Rope3_Seg07
Rope3_Seg09 Rope3_Seg08
R_rear_hand01 Rope3_Seg09
R_rear_hand02 Rope3_Seg09
R_rear_hand03 Rope3_Seg09
Rope4_Seg01 null_rope04_connect
Rope4_Seg02 Rope4_Seg01
Rope4_Seg03 Rope4_Seg02
Rope4_Seg04 Rope4_Seg03
Rope4_Seg05 Rope4_Seg04
Rope4_Seg06 Rope4_Seg05
Rope4_Seg07 Rope4_Seg06
Rope4_Seg08 Rope4_Seg07
Rope4_Seg09 Rope4_Seg08
L_rear_hand01 Rope4_Seg09
L_rear_hand02 Rope4_Seg09
L_rear_hand03 Rope4_Seg09
[BasePosition]
#SegmentName Tx, Ty, Tz, Rx, Ry, Rz, BoneLength
MASTER 0.000000 0.000000 0.000000 -90.000000 0.000000 0.000000 10.000000 
root 0.000000 0.000000 0.000000 0.000000 0.000000 0.000000 10.000000 
chest 0.000000 0.000000 0.000000 0.000000 0.000000 0.000000 10.000000 
L_mid_tent01 0.000000 0.000000 0.000000 0.000000 0.000000 0.000000 10.000000 
R_mid_tent01 0.000000 0.000000 0.000000 0.000000 0.000000 0.000000 10.000000 
spine01 0.000000 0.000000 0.000000 0.000000 0.000000 0.000000 10.000000 
Bip01_Neck 0.000000 0.000000 0.000000 0.000000 0.000000 0.000000 10.000000 
L_humerus 0.000000 0.000000 0.000000 0.000000 0.000000 0.000000 10.000000 
R_humerus 0.000000 0.000000 0.000000 0.000000 0.000000 0.000000 10.000000 
weapon_bone 0.000000 0.000000 0.000000 0.000000 0.000000 0.000000 10.000000 
Bip01_Head 0.000000 0.000000 0.000000 0.000000 0.000000 0.000000 10.000000 
eye_left_bone 0.000000 0.000000 0.000000 0.000000 0.000000 0.000000 10.000000 
eye_right_bone 0.000000 0.000000 0.000000 0.000000 0.000000 0.000000 10.000000 
L_forearm 0.000000 0.000000 0.000000 0.000000 0.000000 0.000000 10.000000 
L_front_hand 0.000000 0.000000 0.000000 0.000000 0.000000 0.000000 10.000000 
L_weapon_bone 0.000000 0.000000 0.000000 0.000000 0.000000 0.000000 10.000000 
L_front_hand01_01 0.000000 0.000000 0.000000 0.000000 0.000000 0.000000 10.000000 
L_front_hand02_01 0.000000 0.000000 0.000000 0.000000 0.000000 0.000000 10.000000 
L_front_hand03_01 0.000000 0.000000 0.000000 0.000000 0.000000 0.000000 10.000000 
L_front_hand01_02 0.000000 0.000000 0.000000 0.000000 0.000000 0.000000 10.000000 
L_front_hand02_02 0.000000 0.000000 0.000000 0.000000 0.000000 0.000000 10.000000 
L_front_hand03_02 0.000000 0.000000 0.000000 0.000000 0.000000 0.000000 10.000000 
R_forearm 0.000000 0.000000 0.000000 0.000000 0.000000 0.000000 10.000000 
R_front_hand 0.000000 0.000000 0.000000 0.000000 0.000000 0.000000 10.000000 
R_weapon_bone 0.000000 0.000000 0.000000 0.000000 0.000000 0.000000 10.000000 
R_front_hand01_01 0.000000 0.000000 0.000000 0.000000 0.000000 0.000000 10.000000 
R_front_hand02_01 0.000000 0.000000 0.000000 0.000000 0.000000 0.000000 10.000000 
R_front_hand03_01 0.000000 0.000000 0.000000 0.000000 0.000000 0.000000 10.000000 
R_front_hand01_02 0.000000 0.000000 0.000000 0.000000 0.000000 0.000000 10.000000 
R_front_hand02_02 0.000000 0.000000 0.000000 0.000000 0.000000 0.000000 10.000000 
R_front_hand03_02 0.000000 0.000000 0.000000 0.000000 0.000000 0.000000 10.000000 
null_rope01_connect 0.000000 0.000000 0.000000 0.000000 0.000000 0.000000 10.000000 
Rope1_Seg01 0.000000 0.000000 0.000000 0.000000 0.000000 0.000000 10.000000 
Rope1_Seg02 0.000000 0.000000 0.000000 0.000000 0.000000 0.000000 10.000000 
Rope1_Seg03 0.000000 0.000000 0.000000 0.000000 0.000000 0.000000 10.000000 
Rope1_Seg04 0.000000 0.000000 0.000000 0.000000 0.000000 0.000000 10.000000 
Rope1_Seg05 0.000000 0.000000 0.000000 0.000000 0.000000 0.000000 10.000000 
Rope1_Seg06 0.000000 0.000000 0.000000 0.000000 0.000000 0.000000 10.000000 
Rope1_Seg07 0.000000 0.000000 0.000000 0.000000 0.000000 0.000000 10.000000 
Rope1_Seg09 0.000000 0.000000 0.000000 0.000000 0.000000 0.000000 10.000000 
L_mid_hand01 0.000000 0.000000 0.000000 0.000000 0.000000 0.000000 10.000000 
L_mid_hand02 0.000000 0.000000 0.000000 0.000000 0.000000 0.000000 10.000000 
L_mid_hand03 0.000000 0.000000 0.000000 0.000000 0.000000 0.000000 10.000000 
null_rope02_connect 0.000000 0.000000 0.000000 0.000000 0.000000 0.000000 10.000000 
Rope2_Seg01 0.000000 0.000000 0.000000 0.000000 0.000000 0.000000 10.000000 
Rope2_Seg02 0.000000 0.000000 0.000000 0.000000 0.000000 0.000000 10.000000 
Rope2_Seg03 0.000000 0.000000 0.000000 0.000000 0.000000 0.000000 10.000000 
Rope2_Seg04 0.000000 0.000000 0.000000 0.000000 0.000000 0.000000 10.000000 
Rope2_Seg05 0.000000 0.000000 0.000000 0.000000 0.000000 0.000000 10.000000 
Rope2_Seg06 0.000000 0.000000 0.000000 0.000000 0.000000 0.000000 10.000000 
Rope2_Seg07 0.000000 0.000000 0.000000 0.000000 0.000000 0.000000 10.000000 
Rope2_Seg09 0.000000 0.000000 0.000000 0.000000 0.000000 0.000000 10.000000 
R_mid_hand01 0.000000 0.000000 0.000000 0.000000 0.000000 0.000000 10.000000 
R_mid_hand02 0.000000 0.000000 0.000000 0.000000 0.000000 0.000000 10.000000 
R_mid_hand03 0.000000 0.000000 0.000000 0.000000 0.000000 0.000000 10.000000 
spine02 0.000000 0.000000 0.000000 0.000000 0.000000 0.000000 10.000000 
spine03 0.000000 0.000000 0.000000 0.000000 0.000000 0.000000 10.000000 
pelvis 0.000000 0.000000 0.000000 0.000000 0.000000 0.000000 10.000000 
null_rope03_connect 0.000000 0.000000 0.000000 0.000000 0.000000 0.000000 10.000000 
null_rope04_connect 0.000000 0.000000 0.000000 0.000000 0.000000 0.000000 10.000000 
Rope3_Seg01 0.000000 0.000000 0.000000 0.000000 0.000000 0.000000 10.000000 
Rope3_Seg02 0.000000 0.000000 0.000000 0.000000 0.000000 0.000000 10.000000 
Rope3_Seg03 0.000000 0.000000 0.000000 0.000000 0.000000 0.000000 10.000000 
Rope3_Seg04 0.000000 0.000000 0.000000 0.000000 0.000000 0.000000 10.000000 
Rope3_Seg05 0.000000 0.000000 0.000000 0.000000 0.000000 0.000000 10.000000 
Rope3_Seg06 0.000000 0.000000 0.000000 0.000000 0.000000 0.000000 10.000000 
Rope3_Seg07 0.000000 0.000000 0.000000 0.000000 0.000000 0.000000 10.000000 
Rope3_Seg08 0.000000 0.000000 0.000000 0.000000 0.000000 0.000000 10.000000 
Rope3_Seg09 0.000000 0.000000 0.000000 0.000000 0.000000 0.000000 10.000000 
R_rear_hand01 0.000000 0.000000 0.000000 0.000000 0.000000 0.000000 10.000000 
R_rear_hand02 0.000000 0.000000 0.000000 0.000000 0.000000 0.000000 10.000000 
R_rear_hand03 0.000000 0.000000 0.000000 0.000000 0.000000 0.000000 10.000000 
Rope4_Seg01 0.000000 0.000000 0.000000 0.000000 0.000000 0.000000 10.000000 
Rope4_Seg02 0.000000 0.000000 0.000000 0.000000 0.000000 0.000000 10.000000 
Rope4_Seg03 0.000000 0.000000 0.000000 0.000000 0.000000 0.000000 10.000000 
Rope4_Seg04 0.000000 0.000000 0.000000 0.000000 0.000000 0.000000 10.000000 
Rope4_Seg05 0.000000 0.000000 0.000000 0.000000 0.000000 0.000000 10.000000 
Rope4_Seg06 0.000000 0.000000 0.000000 0.000000 0.000000 0.000000 10.000000 
Rope4_Seg07 0.000000 0.000000 0.000000 0.000000 0.000000 0.000000 10.000000 
Rope4_Seg08 0.000000 0.000000 0.000000 0.000000 0.000000 0.000000 10.000000 
Rope4_Seg09 0.000000 0.000000 0.000000 0.000000 0.000000 0.000000 10.000000 
L_rear_hand01 0.000000 0.000000 0.000000 0.000000 0.000000 0.000000 10.000000 
L_rear_hand02 0.000000 0.000000 0.000000 0.000000 0.000000 0.000000 10.000000 
L_rear_hand03 0.000000 0.000000 0.000000 0.000000 0.000000 0.000000 10.000000 
#Beginning of Data. Separated by tabs
#Fr	Tx	Ty	Tz	Rx	Ry	Rz	SF
[MASTER]
7 0.000000 0.000000 0.000000 0.001660 0.001660 0.001660 0.000000
8 0.000000 0.000000 0.000000 0.001660 0.001660 0.001660 0.000000
[root]
7 -30.356583 -32.730972 1483.507446 -76.673309 -39.301308 -110.125931 1484.178955
8 -33.264275 -39.615276 1490.892456 -75.785126 -43.158642 -111.342422 1491.789551
[chest]
7 -84.512650 -34.090519 0.000000 2.795252 5.482906 164.991974 91.129311
8 -84.512650 -34.090519 0.000000 3.072315 5.177190 164.928040 91.129311
[L_mid_tent01]
7 27.299135 22.179106 -249.918732 4.292327 7.231827 81.945259 252.381714
8 27.299137 22.179106 -249.918716 3.924613 5.194382 81.425079 252.381699
[R_mid_tent01]
7 23.228794 24.509907 226.238495 160.079803 -28.549541 87.297264 228.744751
8 23.228794 24.509907 226.238495 160.071243 -24.378187 87.307365 228.744751
[spine01]
7 -0.361383 -0.195265 0.000000 0.002062 0.001122 32.879829 0.410763
8 -0.361383 -0.195265 0.000000 0.002062 0.001122 32.879829 0.410763
[Bip01_Neck]
7 165.484543 71.581718 0.000119 176.643677 -1.657967 43.431911 180.302734
8 165.484543 71.581718 0.000119 176.643677 -1.657967 43.431911 180.302734
[L_humerus]
7 -13.983130 -135.272980 -120.471481 174.511948 24.433207 -61.894531 181.680161
8 -13.983130 -135.272980 -120.471481 169.649948 11.093204 -60.343323 181.680161
[R_humerus]
7 -13.983309 -135.273102 125.287651 168.644089 -60.832676 -71.597107 184.909012
8 -13.983309 -135.273102 125.287651 173.738205 -51.120750 -76.483238 184.909012
[weapon_bone]
7 235.964890 -300.705902 0.000000 0.000000 -89.951546 -128.212341 382.234833
8 235.964890 -300.705902 0.000000 0.000000 -89.951546 -128.212341 382.234833
[Bip01_Head]
7 213.636139 185.181107 18.674202 27.003506 4.442373 -43.877998 283.339325
8 213.673828 185.076523 20.027380 31.273613 2.797637 -43.902233 283.391815
[eye_left_bone]
7 -24.626970 125.451866 -64.772606 0.000000 -90.000000 -99.840431 143.318359
8 -24.626970 125.451866 -64.772606 0.000000 -90.000000 -99.840431 143.318359
[eye_right_bone]
7 -24.626970 125.451866 64.327362 0.000000 -89.965736 80.156380 143.117676
8 -24.626970 125.451866 64.327362 0.000000 -89.965736 80.156380 143.117676
[L_forearm]
7 322.776093 0.000000 -0.000119 0.000396 -0.002314 -109.419968 322.776093
8 322.776093 0.000000 -0.000119 0.000396 -0.002314 -109.419975 322.776093
[L_front_hand]
7 241.149185 -0.042021 -3.300071 -178.667953 -1.835447 -27.422350 241.171753
8 241.149185 -0.042021 -3.300071 -178.667953 -1.835447 -27.422350 241.171753
[L_weapon_bone]
7 156.183838 0.000000 0.000000 0.000014 0.000007 0.000001 156.183838
8 156.183838 0.000000 0.000000 0.000014 0.000007 0.000001 156.183838
[L_front_hand01_01]
7 86.095154 20.947098 -0.655860 -0.335131 -0.500211 71.723785 88.609184
8 86.095154 20.947098 -0.655860 -0.320921 -0.506953 70.185371 88.609184
[L_front_hand02_01]
7 86.935165 -11.437475 24.513514 149.028946 -58.148323 -55.100948 91.046425
8 86.935165 -11.437475 24.513514 146.961243 -57.333778 -52.657810 91.046425
[L_front_hand03_01]
7 86.637497 -14.123976 -20.424902 -148.918808 56.366669 -56.764694 90.126129
8 86.637497 -14.123976 -20.424902 -146.985443 55.548409 -54.432819 90.126129
[L_front_hand01_02]
7 71.020905 -0.000179 0.000030 0.000317 -0.002326 -105.537254 71.020905
8 71.020905 -0.000179 0.000030 0.000317 -0.002326 -105.513657 71.020905
[L_front_hand02_02]
7 71.020927 -0.000119 0.000060 0.000317 -0.002326 -105.537254 71.020927
8 71.020927 -0.000119 0.000060 0.000317 -0.002326 -105.513657 71.020927
[L_front_hand03_02]
7 71.020905 -0.000060 0.000060 0.000317 -0.002326 -105.537254 71.020905
8 71.020905 -0.000060 0.000060 0.000317 -0.002326 -105.513657 71.020905
[R_forearm]
7 322.776428 -0.000060 0.000030 0.202103 0.065158 -108.062805 322.776428
8 322.776428 -0.000060 0.000030 0.202103 0.065158 -108.062805 322.776428
[R_front_hand]
7 238.847015 -0.006795 2.210259 -2.635298 -10.645461 -26.312506 238.857239
8 238.847015 -0.006795 2.210259 -2.635298 -10.645461 -26.312506 238.857239
[R_weapon_bone]
7 155.664093 0.002503 -0.000030 0.003487 0.001180 -90.988930 155.664078
8 155.664093 0.002503 -0.000030 0.003487 0.001180 -90.988930 155.664078
[R_front_hand01_01]
7 87.624611 14.231146 22.918642 -149.707169 -58.394512 56.007454 91.683487
8 87.624611 14.231146 22.918642 -147.670532 -57.619129 53.605923 91.683487
[R_front_hand02_01]
7 89.356956 14.367283 -19.491137 149.983459 56.758793 58.275940 92.579636
8 89.356956 14.367283 -19.491137 148.052353 55.989693 55.954597 92.579636
[R_front_hand03_01]
7 87.286232 -22.307278 -0.143439 0.134949 -0.432464 -72.452232 90.091743
8 87.286232 -22.307278 -0.143439 0.125269 -0.437058 -70.957245 90.091743
[R_front_hand01_02]
7 71.020905 0.000060 0.000119 0.002323 -0.000334 106.381714 71.020905
8 71.020905 0.000060 0.000119 0.002323 -0.000334 106.381714 71.020905
[R_front_hand02_02]
7 71.020844 -0.000030 -0.000119 0.002323 -0.000334 106.381714 71.020836
8 71.020844 -0.000030 -0.000119 0.002323 -0.000334 106.381714 71.020836
[R_front_hand03_02]
7 71.020905 0.000000 0.000030 0.002323 -0.000334 106.381714 71.020905
8 71.020905 0.000000 0.000030 0.002323 -0.000334 106.381714 71.020905
[null_rope01_connect]
7 328.732483 0.000000 -0.000238 -66.166161 -68.370819 114.698151 328.732483
8 328.732483 0.000000 -0.000238 -59.898308 -69.275673 113.150368 328.732483
[Rope1_Seg01]
7 -0.000029 -0.000058 0.000116 -109.053207 45.832653 -110.672310 0.000133
8 -0.000027 -0.000055 0.000110 -56.753471 32.528183 -96.245102 0.000126
[Rope1_Seg02]
7 139.999863 -0.000179 0.000000 -27.405252 11.279868 -0.736878 139.999863
8 139.999863 -0.000179 0.000000 -3.278308 5.886587 -5.445068 139.999863
[Rope1_Seg03]
7 139.999924 0.000060 -0.000060 -82.747734 20.486164 -1.679080 139.999924
8 139.999924 0.000060 -0.000060 71.647972 5.277789 -12.733800 139.999924
[Rope1_Seg04]
7 139.999924 -0.000060 -0.000119 59.356476 -32.811756 -18.246180 139.999924
8 139.999924 -0.000060 -0.000119 179.538803 8.254730 -9.309340 139.999924
[Rope1_Seg05]
7 139.999832 0.000119 -0.000060 4.787691 -18.438501 7.958133 139.999832
8 139.999832 0.000119 -0.000060 25.840755 -19.250698 3.930724 139.999832
[Rope1_Seg06]
7 139.999954 0.000119 -0.000060 0.659063 -5.657621 3.639007 139.999954
8 139.999954 0.000119 -0.000060 0.422719 -4.639818 4.643561 139.999954
[Rope1_Seg07]
7 139.999985 0.000060 0.000000 0.297232 -3.105510 2.056827 139.999985
8 139.999985 0.000060 0.000000 0.175122 -2.674211 2.743441 139.999985
[Rope1_Seg09]
7 121.602913 0.000119 -0.000089 -89.793175 -1.359789 0.847147 121.602913
8 121.602913 0.000119 -0.000089 -89.793175 -1.359789 0.847147 121.602913
[L_mid_hand01]
7 103.859421 1.038730 8.195221 110.549706 -45.072773 -15.392938 104.187431
8 103.859421 1.038730 8.195221 109.437721 -41.837845 -13.776228 104.187431
[L_mid_hand02]
7 105.572853 -4.139662 -10.864139 -149.303925 33.991974 -42.687023 106.211075
8 105.572853 -4.139662 -10.864139 -147.395187 32.186741 -39.191986 106.211075
[L_mid_hand03]
7 104.641464 17.579376 -3.913581 -13.209491 13.449579 48.630810 106.179977
8 104.641464 17.579376 -3.913581 -13.988547 12.638442 45.197113 106.179977
[null_rope02_connect]
7 328.732849 0.000179 -0.000119 -122.454109 62.927734 4.976568 328.732849
8 328.732849 0.000179 -0.000119 -116.779526 67.731133 8.212961 328.732849
[Rope2_Seg01]
7 0.000021 0.000108 0.000000 72.298363 6.926616 -56.864193 0.000110
8 0.000012 0.000107 0.000000 86.137093 5.938196 -70.203133 0.000108
[Rope2_Seg02]
7 139.999741 -0.000060 -0.000119 77.105736 -2.800969 -34.599285 139.999756
8 139.999741 -0.000060 -0.000119 41.063553 -17.335232 -26.815695 139.999756
[Rope2_Seg03]
7 140.000107 0.000030 0.000000 7.832554 -17.431734 -0.649276 140.000107
8 140.000107 0.000030 0.000000 8.756506 -16.511547 -5.296577 140.000107
[Rope2_Seg04]
7 139.999802 0.000000 -0.000060 1.884569 -5.378008 -0.240365 139.999802
8 139.999802 0.000000 -0.000060 1.885151 -6.484080 -1.066278 139.999802
[Rope2_Seg05]
7 139.999985 -0.000060 0.000119 2.707626 -2.360828 -3.067889 139.999985
8 139.999985 -0.000060 0.000119 0.331978 -0.956476 -0.466025 139.999985
[Rope2_Seg06]
7 139.999893 -0.000030 -0.000119 13.148888 -4.452711 -16.838581 139.999893
8 139.999893 -0.000030 -0.000119 -0.711548 4.884609 -0.820727 139.999893
[Rope2_Seg07]
7 139.999893 0.000060 -0.000060 41.370842 -29.723726 -55.137928 139.999893
8 139.999893 0.000060 -0.000060 -72.823166 56.487072 -16.736897 139.999893
[Rope2_Seg09]
7 121.338966 0.000089 -0.000060 33.793236 -1.359788 -0.847141 121.338966
8 121.338966 0.000089 -0.000060 33.793236 -1.359788 -0.847141 121.338966
[R_mid_hand01]
7 104.680779 11.144459 -10.335981 -28.447895 39.731529 52.443096 105.778534
8 104.680779 11.144459 -10.335981 -30.935734 37.970642 48.479172 105.778534
[R_mid_hand02]
7 104.070427 2.443552 8.231699 63.902641 -55.672291 22.558332 104.424065
8 104.070427 2.443552 8.231699 65.980988 -52.455704 19.994473 104.424065
[R_mid_hand03]
7 106.028137 -11.221827 -5.996406 -173.262527 14.339042 -61.789948 106.788818
8 106.028137 -11.221827 -5.996406 -172.374313 13.894678 -58.153652 106.788818
[spine02]
7 129.756927 0.001550 0.000119 0.360061 -4.044797 -12.915057 129.756927
8 129.756927 0.001550 0.000119 0.360061 -4.044797 -12.915058 129.756927
[spine03]
7 78.614067 0.081635 -4.899008 1.896495 3.831288 16.473045 78.766602
8 78.614067 0.081635 -4.899009 1.896495 3.831288 16.473045 78.766602
[pelvis]
7 169.435242 0.051022 0.000000 -0.060465 -0.180225 14.087930 169.435257
8 169.435242 0.051022 0.000000 -0.060465 -0.180225 14.087930 169.435257
[null_rope03_connect]
7 -1.257226 -2.466202 137.391083 -44.062862 -74.136909 124.802162 137.418976
8 -1.257226 -2.466202 137.391083 -43.650452 -74.235397 128.369751 137.418976
[null_rope04_connect]
7 -1.259640 -2.480268 -137.844437 -44.062862 -74.136909 124.802162 137.872513
8 -1.259640 -2.480268 -137.844437 -43.650452 -74.235397 128.369751 137.872513
[Rope3_Seg01]
7 0.000010 0.000038 -0.000114 -129.816055 -15.429816 -83.016747 0.000121
8 0.000010 0.000038 -0.000114 -129.232941 -6.217513 -89.331940 0.000121
[Rope3_Seg02]
7 139.999924 -0.000119 0.000060 6.538425 -21.440767 -24.893188 139.999924
8 139.999924 -0.000119 0.000060 1.401929 -14.907638 -10.861955 139.999924
[Rope3_Seg03]
7 139.999924 -0.000119 0.000119 5.607970 -14.671132 -18.065577 139.999924
8 139.999924 -0.000119 0.000119 5.053257 -17.978090 -13.791845 139.999924
[Rope3_Seg04]
7 139.999924 0.000119 0.000000 8.625567 -8.871208 -5.814087 139.999924
8 139.999924 0.000119 0.000000 6.579184 -13.630452 -7.924324 139.999924
[Rope3_Seg05]
7 139.999924 -0.000238 0.000060 20.288883 -9.915309 0.038644 139.999924
8 139.999924 -0.000238 0.000060 7.967887 -10.145035 -3.499165 139.999924
[Rope3_Seg06]
7 139.999893 -0.000119 -0.000060 22.347710 -8.589675 2.488286 139.999893
8 139.999893 -0.000119 -0.000060 9.203526 -8.447311 -2.037728 139.999893
[Rope3_Seg07]
7 139.999771 0.000060 -0.000119 17.574032 -5.800262 4.121651 139.999771
8 139.999771 0.000060 -0.000119 6.433863 -4.566601 -0.354300 139.999771
[Rope3_Seg08]
7 139.999985 -0.000060 0.000000 10.233760 -2.818800 3.753396 139.999985
8 139.999985 -0.000060 0.000000 1.648464 -0.780280 0.030004 139.999985
[Rope3_Seg09]
7 90.185997 -0.000179 -0.000060 89.793228 -1.359877 -0.847183 90.185997
8 90.185997 -0.000179 -0.000060 89.793228 -1.359877 -0.847183 90.185997
[R_rear_hand01]
7 103.366196 -6.073594 -10.757982 -169.896027 22.621880 -54.548431 104.101845
8 103.366196 -6.073594 -10.757982 -168.239929 21.836601 -50.169044 104.101845
[R_rear_hand02]
7 100.509819 12.039542 -7.992327 -24.381289 31.099262 51.752331 101.543350
8 100.509819 12.039542 -7.992327 -26.552095 29.320543 47.442066 101.543350
[R_rear_hand03]
7 101.539970 5.215704 5.435467 80.187729 -54.464619 11.876325 101.819031
8 101.539970 5.215704 5.435467 81.061974 -50.389538 10.772509 101.819031
[Rope4_Seg01]
7 0.000010 0.000029 -0.000116 47.939884 -33.770115 -95.403404 0.000120
8 0.000010 0.000027 -0.000110 50.616619 -24.606285 -102.874626 0.000114
[Rope4_Seg02]
7 139.999985 0.000060 0.000119 -5.556827 -27.386992 -50.187492 139.999985
8 139.999985 0.000060 0.000119 -7.535471 -11.985329 -38.134132 139.999985
[Rope4_Seg03]
7 139.999924 0.000000 -0.000238 -25.054781 -1.536251 -21.314161 139.999924
8 139.999924 0.000000 -0.000238 -9.650990 0.816618 -14.509239 139.999924
[Rope4_Seg04]
7 139.999985 0.000000 0.000119 -8.573405 -0.313975 -6.589590 139.999985
8 139.999985 0.000000 0.000119 -3.619095 -1.915892 -5.953406 139.999985
[Rope4_Seg05]
7 139.999802 -0.000060 -0.000119 -11.366662 -4.276976 -8.713610 139.999802
8 139.999802 -0.000060 -0.000119 -6.861770 -10.431646 -11.858488 139.999802
[Rope4_Seg06]
7 139.999924 0.000000 0.000060 -51.802761 -8.260606 -20.929527 139.999924
8 139.999924 0.000000 0.000060 -64.994591 -18.165813 -30.576166 139.999924
[Rope4_Seg07]
7 139.999802 0.000000 0.000000 -41.974636 11.824815 -16.756796 139.999802
8 139.999802 0.000000 0.000000 -49.709564 18.617907 -24.339216 139.999802
[Rope4_Seg08]
7 139.999924 0.000000 0.000119 -11.773800 12.744961 -3.013729 139.999924
8 139.999924 0.000000 0.000119 -5.834227 8.735806 -0.782076 139.999924
[Rope4_Seg09]
7 90.185791 0.000060 0.000060 -135.617828 2.228885 0.850567 90.185791
8 90.185791 0.000060 0.000060 -135.617828 2.228885 0.850567 90.185791
[L_rear_hand01]
7 101.696655 -8.392275 -7.654577 -31.684452 -23.583008 144.025742 102.329041
8 101.696655 -8.392275 -7.654577 -31.429779 -23.932976 143.406311 102.329041
[L_rear_hand02]
7 102.726799 -1.568258 5.773216 82.701553 38.753956 171.553619 102.900848
8 102.726799 -1.568258 5.773216 82.628304 39.414528 171.441589 102.900848
[L_rear_hand03]
7 104.552910 9.721220 -10.420293 -163.975403 -19.004421 -142.009338 105.519653
8 104.552910 9.721220 -10.420293 -164.198181 -19.188400 -141.332703 105.519653
